<svg id="Layer_1" data-name="Layer 1" xmlns="http://www.w3.org/2000/svg" viewBox="0 0 80 80"><defs><style>.cls-1{fill:#010101;}.cls-2{fill:#fff;}</style></defs><path class="cls-1" d="M21,55.75a1.09,1.09,0,0,1-.14-.43c-.05-1.07.48-1.47.83-2.46s.26-2,1.05-2.79a18.86,18.86,0,0,1,2.92-1.92,6.41,6.41,0,0,1,3-1A5.66,5.66,0,0,0,32.59,45a23.51,23.51,0,0,1,1.92-2.31,12.31,12.31,0,0,0,2-3.36c.36-.79.92-1.61,1.23-2.27s.79-1.22,1.09-1.89c.35-.94.75-1.87,1.19-2.77a36.23,36.23,0,0,1,4.21-5.88A24.19,24.19,0,0,1,46.33,24a18.54,18.54,0,0,1,1.58-1.18c-.47.06-.94.14-1.4.24-1.08.24-2.16.63-3.23.94A11.35,11.35,0,0,0,40,25.3a12,12,0,0,0-2.8,2.41,11.44,11.44,0,0,1-1.67,2c-.82.72-.86,1.59-1.24,2.59a21.39,21.39,0,0,1-1.09,2.56c-.52.92-1.06,1.87-1.52,2.74s-.62,1.85-1.07,2.74a12.73,12.73,0,0,1-3.17,4.17,23.46,23.46,0,0,1-4.74,2.78c-.94.43-1.93.86-2.83,1.22s-1.33,1.13-2,1.73a3.06,3.06,0,0,0-1.34,2.66,4.69,4.69,0,0,0,1.58,2.26c.87.68,1.95.55,2.94.82A.86.86,0,0,1,21,55.75Z"/><path class="cls-1" d="M59.24,28.05c.32-.32.67-.61,1-.92a1,1,0,0,1,.6-.71,2.31,2.31,0,0,0,.33-.73,3,3,0,0,0-.86-3.37,5.38,5.38,0,0,0-2.49-1,5,5,0,0,0-2.73.41c-.69.23-1.34.57-2,.85a.64.64,0,0,1-.24.1l-.34.13a12.52,12.52,0,0,0-2.89,1.42A9.05,9.05,0,0,0,47,26.43c-.52.74-1.13,1.39-1.71,2.09a32.21,32.21,0,0,0-3.69,5.35c-.47.89-.69,1.87-1.17,2.75-.23.43-.54.81-.77,1.25-.7,1.3-1.36,2.69-2.11,4A10.53,10.53,0,0,1,36,44.16a11.19,11.19,0,0,0-1.6,1.9A7.28,7.28,0,0,1,30,49a8.88,8.88,0,0,0-3,.7,27.79,27.79,0,0,0-2.43,1.55c-.86.62-.7,1.65-1.07,2.55a5.88,5.88,0,0,0-.59,1.41,3.72,3.72,0,0,0,1.7,2.27,8.71,8.71,0,0,0,1.22,1c.57.33,1.15.07,1.76.07,2.12-.2,4.95-.28,6.68-1.55s3.66-2.14,5.58-3.53,3.07-3.26,4.55-5.07a6.45,6.45,0,0,0,1.09-1.51c.15-.36.21-.76.36-1.12.4-.84,1-1.52,1.4-2.32a9.72,9.72,0,0,0,.91-1.79c.11-.4.12-.82.23-1.22.22-.95.92-1.68,1.22-2.6a6.3,6.3,0,0,1,1.11-2.59,12.77,12.77,0,0,0,1.43-2c1-1.59,3.05-2.08,4.54-3.08A16.69,16.69,0,0,0,59.24,28.05Z"/><path class="cls-1" d="M55.34,33.17c0,.25,0,.49,0,.74.8.08,1.6.18,2.39.33a3.64,3.64,0,0,0,.72.13h.83c.26,0,.52,0,.78,0,.09-1.13.16-2.25.28-3.37a9,9,0,0,0,.15-1.37,23.31,23.31,0,0,1-4.08,3Z"/><path class="cls-1" d="M58.42,40.88h.81l.49,0a9.41,9.41,0,0,1,0-1.19,11.65,11.65,0,0,0,.41-1.59,17.31,17.31,0,0,0-.24-1.76v0c-.24,0-.49,0-.73,0a8.85,8.85,0,0,1-1.92-.24,3.39,3.39,0,0,0-.72-.13h-.78l-.49,0c-.05.77-.09,1.55-.17,2.32a13.33,13.33,0,0,0,.07,2.19c.22,0,.43,0,.65,0a4.7,4.7,0,0,1,2.09.4l.15.07s.21.1.06,0,.09,0,.09,0Z"/><path class="cls-1" d="M59.8,47a8.35,8.35,0,0,0,.12-1.73,20.41,20.41,0,0,0-.08-2.21,10.35,10.35,0,0,1-2.69-.53L57,42.46h-.15l-.2-.05h-.82c-.22,0-.43,0-.65,0a11.84,11.84,0,0,0,0,1.19c0,.92.23,1.85.23,2.7a4.07,4.07,0,0,0,.5,0,8.07,8.07,0,0,1,1.81.42,5.88,5.88,0,0,0,.71.23L59,47h.82Z"/><path class="cls-1" d="M76.94,37.09c-.07-1,0-2-.1-2.93s-.4-1.91-.63-2.85-.45-1.91-.75-2.83-.82-1.77-1.2-2.67-.63-1.85-1.07-2.72S72,21.55,71.47,20.72s-1-1.64-1.59-2.43-.82-1.82-1.46-2.57-1.61-1.15-2.3-1.84S65,12.26,64.24,11.63s-1.34-1.48-2.13-2.06-1.68-1-2.52-1.54-1.82-.75-2.69-1.2-1.63-1.14-2.53-1.52-1.86-.65-2.79-.95-1.86-.65-2.81-.87-2-.29-2.92-.44-2,0-2.93-.13h-.37c-.84,0-1.69.19-2.55.19s-1.93,0-2.9.11h-.2c-.79,0-1.63-.34-2.42-.34l-.36,0c-1,.15-1.9.54-2.84.76s-1.84.7-2.76,1-1.81.7-2.71,1.07S24,6.38,23.1,6.82s-1.82.76-2.65,1.27-1.4,1.42-2.19,2-1.94.69-2.68,1.33-1.06,1.73-1.75,2.42-1.36,1.37-2,2.11-1.15,1.55-1.73,2.34S8.52,19.56,8,20.4,7,22.1,6.58,23s-1,1.73-1.34,2.63-.61,1.87-.92,2.81-.51,1.89-.74,2.85S3.19,33.18,3,34.15s0,2-.11,2.93S3,39,3,40s-.13,2,0,2.92.35,1.92.5,2.87.34,1.91.56,2.86,0,2,.27,3,.68,1.86,1,2.76.78,1.81,1.23,2.68,1.3,1.51,1.81,2.34,1.16,1.55,1.74,2.34,1.08,1.61,1.71,2.35.92,1.82,1.61,2.51S15,67.81,15.7,68.45s1.77.89,2.56,1.47,1.53,1.19,2.36,1.7,1.58,1.17,2.45,1.61,1.69,1,2.59,1.39,1.83.72,2.76,1,2,.1,2.94.33,1.85.63,2.82.79,1.93.16,2.91.24,1.93.34,2.91.34c.73,0,1.47.06,2.19.06l.75,0c1-.08,2-.09,2.94-.24s2-.33,2.9-.56,1.85-.73,2.77-1,1.81-.75,2.71-1.12,1.89-.59,2.76-1,1.79-.83,2.62-1.34S61.22,70.87,62,70.3s1.52-1.25,2.26-1.88,1.15-1.62,1.84-2.31,1.67-1.1,2.31-1.84,1.45-1.36,2-2.15.9-1.76,1.41-2.6.75-1.81,1.2-2.68.94-1.7,1.32-2.6,1.07-1.69,1.37-2.62.57-1.89.8-2.84.15-2,.3-2.94.58-1.91.65-2.89-.34-2-.34-3S77,38.06,76.94,37.09Zm-14.48-8A10.43,10.43,0,0,1,62.3,31c-.13,1.22-.2,2.44-.31,3.66a8.15,8.15,0,0,0-.1,1.71,10.49,10.49,0,0,1,.24,1.76,7.56,7.56,0,0,1-.4,1.69,6.41,6.41,0,0,0,0,1.75c0,.08,0,.15,0,.23a.88.88,0,0,1,.07.33,1.29,1.29,0,0,1,0,.19c.06,1,.13,1.95.13,2.94A17.85,17.85,0,0,1,61.83,47a8.29,8.29,0,0,1-.25.85,1,1,0,0,1,0,.53,1,1,0,0,1-.2.37,2.71,2.71,0,0,0,.25,1.15,3.67,3.67,0,0,1,0,1.68,7.44,7.44,0,0,0-.41,1.87c0,.6.15,1.16.15,1.76a1,1,0,0,1-2,0,11.16,11.16,0,0,1,.17-3.6,5.74,5.74,0,0,0-.19-2.54H59a6.31,6.31,0,0,1-1.82-.4,5.88,5.88,0,0,0-.71-.23l-.56-.11H55.7l-.41,0c0,.3,0,.6-.07.9a8.79,8.79,0,0,0,.22,2.61,16.74,16.74,0,0,1-.09,2.83,1,1,0,0,1-2,0,12,12,0,0,0,0-2.93A7.38,7.38,0,0,1,53.21,49a11.63,11.63,0,0,0,.11-1.44,1,1,0,0,1,0-.53s0,0,0-.05,0-.31,0-.46c0-1-.22-1.91-.23-2.86s.18-1.89.08-2.84a11.65,11.65,0,0,1-.09-2.64c.1-1,.17-2,.2-3a13.31,13.31,0,0,0-1.49,2c-.24.54-.3,1.23-.5,1.72s-.5.9-.74,1.37c-.48,1-.47,2.12-1,3.12a35,35,0,0,0-1.9,3.17A8.42,8.42,0,0,1,46.48,49,34.11,34.11,0,0,1,42,54.33,40.38,40.38,0,0,1,36.51,58a13.23,13.23,0,0,1-3.07,1.61,26,26,0,0,1-3.16.64c-1.94.3-4.25.93-5.94-.41a12,12,0,0,1-1.75-1.35,14.7,14.7,0,0,1-2.42-.66c-1.21-.25-2.29-.26-3.29-1.08-1.71-1.43-2.87-3.54-2-5.75a5.45,5.45,0,0,1,1.66-2.17,11.61,11.61,0,0,1,2-1.9c1-.54,2.17-.91,3.15-1.37s1.92-.94,2.85-1.46a10.67,10.67,0,0,0,4.34-4.77c.57-1.14.86-2.33,1.5-3.45A26.14,26.14,0,0,0,32,32.76c.41-1,.65-2.22,1.09-3.16S34.4,28.24,35,27.43A13.84,13.84,0,0,1,40.07,23a23.48,23.48,0,0,1,3.48-1.11A28.86,28.86,0,0,1,46.83,21a23.27,23.27,0,0,1,5.34-.29l.41-.17a25.36,25.36,0,0,1,2.63-1c3.12-1,7.22.55,8,3.94a5.67,5.67,0,0,1-1,4.34A7.12,7.12,0,0,1,62.46,29.1Z"/><path class="cls-2" d="M79.3,41a6.3,6.3,0,0,1-.14-1A21.4,21.4,0,0,0,79,37.82c0-.29-.06-.59-.08-.88a9.32,9.32,0,0,1,0-1.07,13.05,13.05,0,0,0-.1-2c-.14-.88-.35-1.71-.54-2.51l-.12-.5,0-.13c-.22-.93-.45-1.89-.77-2.85a13.13,13.13,0,0,0-.8-1.87c-.17-.34-.32-.65-.45-.95s-.24-.63-.36-.95A15.69,15.69,0,0,0,75,22.18a10.6,10.6,0,0,0-1.17-1.69,7.37,7.37,0,0,1-.62-.82c-.59-1-1.1-1.75-1.68-2.55a6.18,6.18,0,0,1-.46-.87,7.61,7.61,0,0,0-1.1-1.82,7.62,7.62,0,0,0-1.62-1.37,6.74,6.74,0,0,1-.79-.59,6.58,6.58,0,0,1-.63-.8,9,9,0,0,0-1.36-1.57,7.56,7.56,0,0,1-.75-.75A11.38,11.38,0,0,0,63.29,8c-.61-.44-1.24-.8-1.84-1.15-.27-.16-.55-.31-.81-.48a11.48,11.48,0,0,0-1.85-.85,9.29,9.29,0,0,1-1-.42,9,9,0,0,1-.89-.56,9.68,9.68,0,0,0-1.79-1c-.79-.33-1.59-.59-2.36-.83l-.57-.19-.65-.21c-.74-.25-1.51-.51-2.32-.7a17.9,17.9,0,0,0-2.08-.33l-1-.13a11.93,11.93,0,0,0-2-.12c-.38,0-.74,0-1.07,0a4.43,4.43,0,0,0-.52,0A11.32,11.32,0,0,0,41.06,1c-.38,0-.74.08-1.06.08-1.11,0-2.11,0-3,.11h0a4,4,0,0,1-.84-.13A7.68,7.68,0,0,0,34.48.87a4.91,4.91,0,0,0-.67.05,14.05,14.05,0,0,0-2,.51l-1,.29a13.58,13.58,0,0,0-1.93.66c-.35.15-.67.28-1,.38-.81.26-1.56.58-2.28.88L25,3.89c-.31.13-.62.24-.94.36A15.8,15.8,0,0,0,22.19,5c-.3.15-.62.29-1,.44a14.8,14.8,0,0,0-1.83.91,7.69,7.69,0,0,0-1.6,1.39,6.14,6.14,0,0,1-.71.68,3.68,3.68,0,0,1-.8.35,6.59,6.59,0,0,0-2,1.07,6.67,6.67,0,0,0-1.37,1.8,4.49,4.49,0,0,1-.49.74l0,0c-.69.69-1.4,1.39-2.07,2.18-.51.6-.94,1.21-1.35,1.79-.16.23-.31.45-.48.67a4.08,4.08,0,0,1-.66.62,6.87,6.87,0,0,0-1.51,1.63c-.5.81-1,1.72-1.51,2.71-.14.27-.29.54-.44.81-.33.62-.68,1.26-1,2a20.35,20.35,0,0,0-.7,2.08l-.27.88c-.27.85-.48,1.7-.67,2.53l-.11.47c-.25,1-.42,2.07-.57,3.05a11.81,11.81,0,0,0-.11,2c0,.39,0,.75,0,1.08a17.09,17.09,0,0,0,0,2c0,.35,0,.69,0,1s0,.69,0,1a17.09,17.09,0,0,0,0,2,16.73,16.73,0,0,0,.33,2c.07.33.14.66.19,1,.16,1,.36,2,.6,3A4.81,4.81,0,0,1,2.1,50a7.11,7.11,0,0,0,.25,2.2c.32,1,.71,1.94,1.11,2.91s.86,2,1.29,2.82A8.26,8.26,0,0,0,6,59.67a7,7,0,0,1,.63.77,16.13,16.13,0,0,0,1.21,1.68c.21.26.42.52.61.79s.35.49.52.74c.4.57.8,1.15,1.29,1.73a5.68,5.68,0,0,1,.49.81A6.92,6.92,0,0,0,12,68a15.48,15.48,0,0,0,1.57,1.32c.3.22.58.44.83.65a8.33,8.33,0,0,0,1.82,1.1,6.79,6.79,0,0,1,.87.46l.69.52a19.69,19.69,0,0,0,1.8,1.27c.28.17.56.38.87.6A13.32,13.32,0,0,0,22.16,75l.9.5a15.7,15.7,0,0,0,1.83,1c1,.41,2,.78,2.91,1.08a7.4,7.4,0,0,0,2.14.29,6.21,6.21,0,0,1,1,.07c.31.08.65.19,1,.3a12,12,0,0,0,2,.52c.76.12,1.49.16,2.2.21l.86,0c.32,0,.67.08,1,.14a12.06,12.06,0,0,0,2,.21c.34,0,.68,0,1,0s.78,0,1.17,0,.63,0,.91,0l.91-.06c.71,0,1.44-.08,2.18-.19,1.15-.18,2.15-.38,3.06-.59a13.51,13.51,0,0,0,1.93-.69c.35-.15.68-.29,1-.39.73-.24,1.39-.53,2-.81.28-.13.55-.25.83-.36s.64-.24,1-.36a12.25,12.25,0,0,0,1.89-.74l.84-.41a19.85,19.85,0,0,0,1.93-1,17.93,17.93,0,0,0,1.71-1.24c.26-.2.52-.41.79-.6.66-.49,1.26-1,1.84-1.51l.54-.47a7.34,7.34,0,0,0,1.36-1.64,3.45,3.45,0,0,1,1.37-1.36,7.94,7.94,0,0,0,1.64-1.37c.21-.24.47-.49.75-.76a12.06,12.06,0,0,0,1.37-1.51,11.33,11.33,0,0,0,1-1.78,10.37,10.37,0,0,1,.49-1,10.69,10.69,0,0,0,.86-1.84,10.29,10.29,0,0,1,.42-1c.13-.26.27-.52.42-.79a20.82,20.82,0,0,0,1-2,7.05,7.05,0,0,1,.5-.89,8.9,8.9,0,0,0,.93-1.88c.31-.94.59-2,.84-3a11.83,11.83,0,0,0,.25-2,10.73,10.73,0,0,1,.09-1.07,8.81,8.81,0,0,1,.25-1,10.27,10.27,0,0,0,.42-2A7.76,7.76,0,0,0,79.3,41Zm-2.45,4.85c-.15,1-.08,2-.3,2.94s-.5,1.91-.8,2.84-1,1.72-1.37,2.62-.88,1.74-1.32,2.6-.69,1.85-1.2,2.68-.84,1.81-1.41,2.6-1.4,1.41-2,2.15-1.62,1.15-2.31,1.84-1.1,1.67-1.84,2.31S62.8,69.72,62,70.3s-1.53,1.24-2.37,1.76S57.89,73,57,73.4s-1.85.66-2.76,1-1.78.82-2.71,1.12-1.81.8-2.77,1-1.93.41-2.9.56-2,.16-2.94.24l-.75,0c-.72,0-1.46-.06-2.19-.06-1,0-2-.27-2.91-.34s-2-.09-2.91-.24-1.87-.56-2.82-.79-2,0-2.94-.33-1.86-.65-2.76-1-1.73-1-2.59-1.39-1.62-1.1-2.45-1.61-1.57-1.13-2.36-1.7-1.82-.84-2.56-1.47-1.6-1.17-2.29-1.86-1-1.77-1.61-2.51-1.14-1.56-1.71-2.35-1.23-1.5-1.74-2.34S7,57.92,6.54,57.05s-.86-1.78-1.23-2.68-.75-1.82-1-2.76,0-2-.27-3-.41-1.89-.56-2.86S3,43.9,2.93,42.92,3,41,3,40s-.13-2,0-2.92,0-2,.11-2.93.32-1.95.54-2.89.44-1.93.74-2.85.54-1.91.92-2.81S6.13,23.84,6.58,23,7.5,21.23,8,20.4s1.52-1.33,2.09-2.12,1.1-1.6,1.73-2.34,1.31-1.42,2-2.11,1-1.79,1.75-2.42,1.89-.76,2.68-1.33,1.36-1.47,2.19-2,1.77-.82,2.65-1.27,1.8-.71,2.71-1.09S27.59,5,28.52,4.66s1.8-.77,2.76-1,1.87-.61,2.84-.76l.36,0c.79,0,1.63.34,2.42.34h.2c1-.08,1.92-.11,2.9-.11s1.71-.19,2.55-.19h.37c1,.08,2,0,2.93.13s2,.21,2.92.44,1.89.57,2.81.87,1.89.58,2.79.95S56,6.39,56.9,6.83s1.86.69,2.69,1.2,1.73,1,2.52,1.54,1.38,1.42,2.13,2.06,1.19,1.56,1.88,2.25,1.67,1.1,2.3,1.84.89,1.78,1.46,2.57,1.08,1.59,1.59,2.43,1.27,1.5,1.72,2.37.7,1.81,1.07,2.72.9,1.74,1.2,2.67.53,1.87.75,2.83.48,1.88.63,2.85,0,2,.1,2.93.22,1.93.22,2.91.42,2,.34,3S77,44.88,76.85,45.84Z"/><path class="cls-2" d="M63.21,23.47c-.78-3.39-4.88-4.93-8-3.94a25.36,25.36,0,0,0-2.63,1l-.41.17a23.27,23.27,0,0,0-5.34.29,28.86,28.86,0,0,0-3.28.88A23.48,23.48,0,0,0,40.07,23,13.84,13.84,0,0,0,35,27.43c-.6.81-1.5,1.23-1.94,2.17s-.68,2.13-1.09,3.16a26.14,26.14,0,0,1-1.59,3.12c-.64,1.12-.93,2.31-1.5,3.45a10.67,10.67,0,0,1-4.34,4.77c-.93.52-1.87,1-2.85,1.46s-2.15.83-3.15,1.37a11.61,11.61,0,0,0-2,1.9A5.45,5.45,0,0,0,14.88,51c-.87,2.21.29,4.32,2,5.75,1,.82,2.08.83,3.29,1.08a14.7,14.7,0,0,0,2.42.66,12,12,0,0,0,1.75,1.35c1.69,1.34,4,.71,5.94.41a26,26,0,0,0,3.16-.64A13.23,13.23,0,0,0,36.51,58,40.38,40.38,0,0,0,42,54.33,34.11,34.11,0,0,0,46.48,49a8.42,8.42,0,0,0,1.18-2.43,35,35,0,0,1,1.9-3.17c.53-1,.52-2.13,1-3.12.24-.47.54-.88.74-1.37s.26-1.18.5-1.72a13.31,13.31,0,0,1,1.49-2c0,1-.1,2-.2,3a11.65,11.65,0,0,0,.09,2.64c.1.95-.09,1.89-.08,2.84s.26,1.88.23,2.86c0,.15,0,.31,0,.46s0,0,0,.05a1,1,0,0,0,0,.53A11.63,11.63,0,0,1,53.21,49a7.38,7.38,0,0,0,.14,2.73,12,12,0,0,1,0,2.93,1,1,0,0,0,2,0,16.74,16.74,0,0,0,.09-2.83,8.79,8.79,0,0,1-.22-2.61c0-.3.05-.6.07-.9l.41,0h.19l.56.11a5.88,5.88,0,0,1,.71.23,6.31,6.31,0,0,0,1.82.4h.39a5.74,5.74,0,0,1,.19,2.54,11.16,11.16,0,0,0-.17,3.6,1,1,0,0,0,2,0c0-.6-.13-1.16-.15-1.76a7.44,7.44,0,0,1,.41-1.87,3.67,3.67,0,0,0,0-1.68,2.71,2.71,0,0,1-.25-1.15,1,1,0,0,0,.2-.37,1,1,0,0,0,0-.53,8.29,8.29,0,0,0,.25-.85,17.85,17.85,0,0,0,.07-1.79c0-1-.07-2-.13-2.94a1.29,1.29,0,0,0,0-.19.88.88,0,0,0-.07-.33c0-.08,0-.15,0-.23a6.41,6.41,0,0,1,0-1.75,7.56,7.56,0,0,0,.4-1.69,10.49,10.49,0,0,0-.24-1.76,8.15,8.15,0,0,1,.1-1.71c.11-1.22.18-2.44.31-3.66a10.43,10.43,0,0,0,.16-1.85,7.12,7.12,0,0,0-.23-1.29A5.67,5.67,0,0,0,63.21,23.47ZM58.13,40.88c.15.1-.05,0-.06,0l-.15-.07a4.7,4.7,0,0,0-2.09-.4c-.22,0-.43,0-.65,0a13.33,13.33,0,0,1-.07-2.19c.08-.77.12-1.55.17-2.32l.49,0h.78a3.39,3.39,0,0,1,.72.13,8.85,8.85,0,0,0,1.92.24c.24,0,.49,0,.73,0v0a17.31,17.31,0,0,1,.24,1.76,11.65,11.65,0,0,1-.41,1.59,9.41,9.41,0,0,0,0,1.19l-.49,0h-1S58,40.78,58.13,40.88ZM60.33,31c-.12,1.12-.19,2.24-.28,3.37-.26,0-.52,0-.78,0h-.83a3.64,3.64,0,0,1-.72-.13c-.79-.15-1.59-.25-2.39-.33,0-.25,0-.49,0-.74l1.06-.56a23.31,23.31,0,0,0,4.08-3A9,9,0,0,1,60.33,31ZM18.11,55.16a4.69,4.69,0,0,1-1.58-2.26,3.06,3.06,0,0,1,1.34-2.66c.67-.6,1.1-1.37,2-1.73s1.89-.79,2.83-1.22a23.46,23.46,0,0,0,4.74-2.78,12.73,12.73,0,0,0,3.17-4.17c.45-.89.61-1.87,1.07-2.74s1-1.82,1.52-2.74a21.39,21.39,0,0,0,1.09-2.56c.38-1,.42-1.87,1.24-2.59a11.44,11.44,0,0,0,1.67-2A12,12,0,0,1,40,25.3,11.35,11.35,0,0,1,43.28,24c1.07-.31,2.15-.7,3.23-.94.46-.1.93-.18,1.4-.24A18.54,18.54,0,0,0,46.33,24a24.19,24.19,0,0,0-2.1,2.54A36.23,36.23,0,0,0,40,32.42c-.44.9-.84,1.83-1.19,2.77-.3.67-.78,1.23-1.09,1.89s-.87,1.48-1.23,2.27a12.31,12.31,0,0,1-2,3.36A23.51,23.51,0,0,0,32.59,45a5.66,5.66,0,0,1-3.94,2.13,6.41,6.41,0,0,0-3,1,18.86,18.86,0,0,0-2.92,1.92c-.79.81-.7,1.8-1.05,2.79s-.88,1.39-.83,2.46a1.09,1.09,0,0,0,.14.43.86.86,0,0,0,.06.23C20.06,55.71,19,55.84,18.11,55.16Zm34-21.91a12.77,12.77,0,0,1-1.43,2,6.3,6.3,0,0,0-1.11,2.59c-.3.92-1,1.65-1.22,2.6-.11.4-.12.82-.23,1.22a9.72,9.72,0,0,1-.91,1.79c-.43.8-1,1.48-1.4,2.32-.15.36-.21.76-.36,1.12A6.45,6.45,0,0,1,44.4,48.4c-1.48,1.81-2.63,3.68-4.55,5.07S36,55.73,34.27,57s-4.56,1.35-6.68,1.55c-.61,0-1.19.26-1.76-.07a8.71,8.71,0,0,1-1.22-1,3.72,3.72,0,0,1-1.7-2.27,5.88,5.88,0,0,1,.59-1.41c.37-.9.21-1.93,1.07-2.55A27.79,27.79,0,0,1,27,49.7a8.88,8.88,0,0,1,3-.7,7.28,7.28,0,0,0,4.4-2.94,11.19,11.19,0,0,1,1.6-1.9,10.53,10.53,0,0,0,1.56-2.29c.75-1.31,1.41-2.7,2.11-4,.23-.44.54-.82.77-1.25.48-.88.7-1.86,1.17-2.75a32.21,32.21,0,0,1,3.69-5.35c.58-.7,1.19-1.35,1.71-2.09a9.05,9.05,0,0,1,2.57-2.2,12.52,12.52,0,0,1,2.89-1.42l.34-.13a.64.64,0,0,0,.24-.1c.68-.28,1.33-.62,2-.85a5,5,0,0,1,2.73-.41,5.38,5.38,0,0,1,2.49,1,3,3,0,0,1,.86,3.37,2.31,2.31,0,0,1-.33.73,1,1,0,0,0-.6.71c-.31.31-.66.6-1,.92a16.69,16.69,0,0,1-2.55,2.12C55.2,31.17,53.11,31.66,52.15,33.25ZM59,47l-.59,0a5.88,5.88,0,0,1-.71-.23,8.07,8.07,0,0,0-1.81-.42,4.07,4.07,0,0,1-.5,0c0-.85-.21-1.78-.23-2.7a11.84,11.84,0,0,1,0-1.19c.22,0,.43,0,.65,0h.82l.2.05H57l.15.07a10.35,10.35,0,0,0,2.69.53,20.41,20.41,0,0,1,.08,2.21A8.35,8.35,0,0,1,59.8,47v0H59Z"/></svg>